<?xml version="1.0" encoding="UTF-8"?>
<svg width="120px" height="120px" viewBox="0 0 120 120" version="1.1" xmlns="http://www.w3.org/2000/svg" xmlns:xlink="http://www.w3.org/1999/xlink">
    <title>Incentive</title>
    <g id="Page-1" stroke="none" stroke-width="1" fill="none" fill-rule="evenodd">
        <g id="Desktop-HD" transform="translate(-580.000000, -1897.000000)">
            <g id="Incentive" transform="translate(580.000000, 1897.000000)">
                <circle id="Oval" stroke="#181818" stroke-width="2" cx="60" cy="60" r="59"></circle>
                <g transform="translate(25.000000, 26.000000)" fill="#000000" fill-rule="nonzero">
                    <path d="M14.7417879,57 L5.14178794,57 C4.47908794,57 3.94178794,57.5373 3.94178794,58.2 L3.94178794,67.8 C3.94178794,68.4627 4.47908794,69 5.14178794,69 L14.7417879,69 C15.4044879,69 15.9417879,68.4627 15.9417879,67.8 L15.9417879,58.2 C15.9417879,57.53715 15.4046379,57 14.7417879,57 Z M13.5417879,66.6 L6.34178794,66.6 L6.34178794,59.4 L13.5417879,59.4 L13.5417879,66.6 Z" id="Shape"></path>
                    <path d="M32.7417879,54 L23.1417879,54 C22.4790879,54 21.9417879,54.5166346 21.9417879,55.1538462 L21.9417879,67.8461538 C21.9417879,68.4833654 22.4790879,69 23.1417879,69 L32.7417879,69 C33.4044879,69 33.9417879,68.4833654 33.9417879,67.8461538 L33.9417879,55.1538462 C33.9417879,54.5164904 33.4046379,54 32.7417879,54 Z M31.5417879,66.6923077 L24.3417879,66.6923077 L24.3417879,56.3076923 L31.5417879,56.3076923 L31.5417879,66.6923077 Z" id="Shape"></path>
                    <path d="M49.7417879,49 L40.1417879,49 C39.4790879,49 38.9417879,49.5267647 38.9417879,50.1764706 L38.9417879,67.8235294 C38.9417879,68.4732353 39.4790879,69 40.1417879,69 L49.7417879,69 C50.4044879,69 50.9417879,68.4732353 50.9417879,67.8235294 L50.9417879,50.1764706 C50.9417879,49.5266176 50.4046379,49 49.7417879,49 Z M48.5417879,66.6470588 L41.3417879,66.6470588 L41.3417879,51.3529412 L48.5417879,51.3529412 L48.5417879,66.6470588 Z" id="Shape"></path>
                    <path d="M66.7417879,39 L57.1417879,39 C56.4790879,39 55.9417879,39.5166346 55.9417879,40.1538462 L55.9417879,67.8461538 C55.9417879,68.4833654 56.4790879,69 57.1417879,69 L66.7417879,69 C67.4044879,69 67.9417879,68.4833654 67.9417879,67.8461538 L67.9417879,40.1538462 C67.9417879,39.5164904 67.4046379,39 66.7417879,39 Z M65.5417879,66.6923077 L58.3417879,66.6923077 L58.3417879,41.3076923 L65.5417879,41.3076923 L65.5417879,66.6923077 Z" id="Shape"></path>
                    <path d="M53.4197291,29 L53.4197291,26.6042781 C54.8020821,26.3761141 55.9013468,25.8663102 56.7175232,25.0748663 C57.5336997,24.2834225 57.9417879,23.3101604 57.9417879,22.1550802 C57.9417879,21.1853832 57.6954644,20.4153298 57.2028174,19.8449198 C56.7101703,19.2745098 56.1182585,18.8538324 55.4270821,18.5828877 C54.7359056,18.311943 53.8609056,18.0481283 52.8020821,17.7914439 C52.0373762,17.6060606 51.4417879,17.4420677 51.0153174,17.2994652 C50.5888468,17.1568627 50.2359056,16.9572193 49.9564938,16.7005348 C49.6770821,16.4438503 49.5373762,16.1158645 49.5373762,15.7165775 C49.5373762,15.1319073 49.7763468,14.6755793 50.2542879,14.3475936 C50.7322291,14.0196078 51.3682585,13.855615 52.1623762,13.855615 C53.5888468,13.855615 55.0300232,14.3475936 56.4859056,15.3315508 L56.4859056,15.3315508 L57.5888468,12.9572193 C57.1182585,12.543672 56.5079644,12.197861 55.7579644,11.9197861 C55.0079644,11.6417112 54.2064938,11.4456328 53.3535526,11.3315508 L53.3535526,11.3315508 L53.3535526,9 L50.7064938,9 L50.7064938,11.3957219 C49.3388468,11.6238859 48.2322291,12.1479501 47.3866409,12.9679144 C46.5410526,13.7878788 46.1182585,14.7682709 46.1182585,15.9090909 C46.1182585,16.8930481 46.371935,17.6809269 46.8792879,18.2727273 C47.3866409,18.8645276 47.9932585,19.3030303 48.6991409,19.5882353 C49.4050232,19.8734403 50.3020821,20.144385 51.3903174,20.4010695 C52.1403174,20.5864528 52.7175232,20.7468806 53.121935,20.8823529 C53.5263468,21.0178253 53.8609056,21.1996435 54.1256115,21.4278075 C54.3903174,21.6559715 54.5226703,21.9483066 54.5226703,22.3048128 C54.5226703,22.8894831 54.2836997,23.342246 53.8057585,23.6631016 C53.3278174,23.9839572 52.6403174,24.144385 51.7432585,24.144385 C50.0667879,24.144385 48.5006115,23.6524064 47.0447291,22.6684492 L47.0447291,22.6684492 L45.9417879,25.0427807 C46.5447291,25.4991087 47.2616409,25.8698752 48.0925232,26.1550802 C48.9234056,26.4402852 49.8167879,26.6185383 50.7726703,26.6898396 L50.7726703,26.6898396 L50.7726703,29 L53.4197291,29 Z" id="$"></path>
                    <path d="M39.5069737,6 C38.5096615,7.14789487 37.6473057,8.43994668 36.9417879,9.84326736 L38.6957168,11 C39.3133294,9.77126134 40.0683018,8.6401727 40.9417879,7.63542059 L39.5069737,6 Z" id="Path"></path>
                    <path d="M51.9235128,34.3800747 C50.4516807,34.3807834 48.9861921,34.2530119 47.5635973,34 L46.9417879,35.5653528 C48.5672222,35.854408 50.2418937,36.0005049 51.9235128,36 L51.9417879,36 L51.9235128,34.3800747 Z" id="Path"></path>
                    <path d="M51.9966267,0 L51.9417879,0 L51.9966267,1.62477835 C53.4573332,1.62406751 54.9119967,1.75019073 56.3245115,2 L56.9417879,0.429146506 C55.3277444,0.143592169 53.6656602,-0.000708225951 51.9966267,0 Z" id="Path"></path>
                    <path d="M40.5790343,30 L38.9417879,31.4322471 C40.0887445,32.4304454 41.3801937,33.2936119 42.7835271,34 L43.9417879,32.2477479 C42.713672,31.6292316 41.5832372,30.8735342 40.5790343,30 Z" id="Path"></path>
                    <path d="M34.3737985,13 C34.0890689,14.5999033 33.9444234,16.2479911 33.9434098,17.9031781 L33.9417879,18 L35.5640068,17.9634463 C35.5632972,16.4972207 35.6903055,15.0371881 35.9417879,13.6196 L34.3737985,13 Z" id="Path"></path>
                    <path d="M37.2582323,22 L34.9417879,22.5937821 C35.3778545,24.1368156 36.0254336,25.6182707 36.8677361,27 L38.9417879,25.8514402 C38.2051667,24.6438736 37.6391347,23.3488684 37.2582323,22 Z" id="Path"></path>
                    <path d="M59.7955141,33 C58.5868045,33.7357839 57.2912279,34.3011253 55.9417879,34.6814704 L56.5344271,37 C58.0774606,36.5648912 59.5593442,35.9182296 60.9417879,35.0769692 L59.7955141,33 Z" id="Path"></path>
                    <path d="M66.191472,27 C65.5723161,28.2278261 64.8160614,29.3575362 63.9417879,30.3605797 L65.3721645,32 C66.3706482,30.8537681 67.2344339,29.5630435 67.9417879,28.1605797 L66.191472,27 Z" id="Path"></path>
                    <path d="M47.3457879,0 C45.8033594,0.437188752 44.3225022,1.08585764 42.9417879,1.92893249 L44.0913594,4 C45.2985022,3.26281499 46.5932165,2.69562287 47.9417879,2.31325121 L47.3457879,0 Z" id="Path"></path>
                    <path d="M68.0101858,9 L65.9417879,10.1516156 C66.6796462,11.3580836 67.2476324,12.6519727 67.6313786,14 L69.9417879,13.4007656 C69.5032637,11.8591835 68.8538586,10.379596 68.0101858,9 Z" id="Path"></path>
                    <path d="M68.3244008,18.0720474 C68.3250073,19.5284766 68.196324,20.9786537 67.9417879,22.3859597 L69.5046881,23 C69.7953121,21.3923308 69.9422921,19.7356873 69.9417879,18.0720474 L69.9417879,18 L68.3244008,18.0720474 Z" id="Path"></path>
                    <path d="M61.0950546,3 L59.9417879,4.75605126 C61.1711085,5.37278912 62.3030801,6.1272267 63.3087299,7 L64.9417879,5.56326531 C63.7928672,4.56620788 62.4996613,3.7044455 61.0950546,3 Z" id="Path"></path>
                    <path d="M36.9603161,36.1356467 L29.9136053,35 L29.5270639,37.240205 L33.8669569,37.9394795 L26.9798247,42.9339117 L15.6269864,42.9339117 C15.4189616,42.9337697 15.2147538,42.9871451 15.0352095,43.0886435 L0.941787942,51.0381703 L2.12548855,53 L15.9448224,45.205205 L27.3716512,45.205205 C27.6257732,45.2050631 27.8731421,45.1252839 28.0764691,44.9777918 L35.12685,39.8648265 L34.4345107,43.8827445 L36.7512637,44.2565142 L37.9257155,37.4426341 C38.0320034,36.8241325 37.5999519,36.2389905 36.9603161,36.1356467 Z" id="Path"></path>
                </g>
            </g>
        </g>
    </g>
</svg>