<svg id="Layer_1" data-name="Layer 1" xmlns="http://www.w3.org/2000/svg" xmlns:xlink="http://www.w3.org/1999/xlink" width="4.78in" height="4.78in" viewBox="0 0 344.22 344.22"><defs><style>.cls-1{fill:url(#linear-gradient);}.cls-2{fill:url(#linear-gradient-2);}</style><linearGradient id="linear-gradient" x1="-23.4" y1="-62.45" x2="251.69" y2="194" gradientTransform="matrix(1, 0, 0, -1, -13.5, 161.5)" gradientUnits="userSpaceOnUse"><stop offset="0" stop-color="#4d60ac"/><stop offset="1" stop-color="#57ed2e"/></linearGradient><linearGradient id="linear-gradient-2" x1="-34.23" y1="-50.83" x2="240.86" y2="205.63" xlink:href="#linear-gradient"/></defs><title>individual-services-icon2</title><path class="cls-1" d="M166.76,134c-16.8-7.17-33.55-6.85-50.45-.79l-.3.14a.55.55,0,0,0,0,.16l-.1-.1c-1,.4-2.18.63-3.11,1l-1.19.4a97.51,97.51,0,0,0-21.79,15.85c-2.28,2.2-3.55,2.85-6.18.14-7.25-7.53-16.42-12.72-24.52-19.23-18.56-15-24.5-42.35-13.63-62.37C54.92,51.81,72,42.82,91.23,45.06c17,2,32.88,17.05,37.26,35.36,4.93,20.7-4.91,38-24.74,42.84-11.47,2.79-21.61,0-29.36-9.15-7.49-8.91-10.12-19.23-6.2-30.35,4.18-11.88,20.12-15.55,28.33-7,5.59,5.84,5.65,13.07,0,18.94-1.62,1.72-3.45,3.27-5.33,5,12.1,3.57,22.64-7.23,20-19.95C107.13,61,83.48,53.34,67.16,66.49,55.08,76.23,52,88.85,55.67,103.43c5.94,24.21,28.4,37.24,52.55,30.82a26.24,26.24,0,0,1,5.68-1.74l.52-.1a12.8,12.8,0,0,1,2.83-1.11c1-.73,2.36-1,3.35-1.68,9.21-5.94,16.08-13.87,19.15-24.54,5.15-17.95,0-33.93-9.79-48.91-6.1-9.31-15.13-15.17-25.16-20.3,14.82-12.76,20.34-28.29,16.12-46.75-3.33-14.54-11.67-25.53-26.52-29.49-12.46-3.31-23.77.22-32.54,9.9A43.85,43.85,0,0,0,50.82,6.37,44.31,44.31,0,0,0,68.29,35.92C32.91,47.81,16.89,90.24,38,127.56c-2.93,1.33-6.08,1-9.13,1.09a60.57,60.57,0,0,0-24.24,5.94C-17.81,145.28-20.84,176-1,189.77a42,42,0,0,0,28.46,6.81c21-2,39.89-9.31,55.88-23.35,2.38-2.08,3.7-2.73,6.36-.26,11.39,10.68,25.22,17.05,40.09,21,11.19,3,22.56,4.16,34,.59,13.33-4.14,23-15.63,23.77-28.9C188.27,151.9,180,139.6,166.76,134ZM61.89-1.23a32.27,32.27,0,0,1,6.81-19.61C78.31-33,94.1-33.13,103.85-21.08c10.42,12.88,9.21,33.67-2.63,44.67a18.32,18.32,0,0,1-14.92,5.7C72.07,29.92,61.52,15.23,61.89-1.23Zm15,166.8C61.14,178.3,43.63,186.48,23,186.44c-13.33,0-23.59-7.82-24.74-18.4-1.35-12.4,6.81-23.33,20-26.56a51,51,0,0,1,13.53-2c19.35-.14,33.44,7.74,45.56,20.09,2.26,2.46,1.9,4.06-.5,6Zm97.81,8.76c-5.27,10.1-14.78,12.46-25.37,12.3a89.37,89.37,0,0,1-50.69-20.36c-2.89-2.32-3.74-4-.52-7.23,16.48-16.28,35.52-23.19,58.55-17.47,15.51,3.86,24.74,19.83,18,32.78Z" transform="translate(85.22 85.22)"/><path class="cls-2" d="M86.89,259A172.11,172.11,0,1,1,259,86.89h0A172.33,172.33,0,0,1,86.89,259Zm0-336A163.89,163.89,0,1,0,250.78,86.89,163.89,163.89,0,0,0,86.89-77Z" transform="translate(85.22 85.22)"/></svg>